<svg width="2598" height="2598" xmlns="http://www.w3.org/2000/svg" xmlns:xlink="http://www.w3.org/1999/xlink" xml:space="preserve" overflow="hidden"><defs><clipPath id="clip0"><rect x="461" y="461" width="2598" height="2598"/></clipPath></defs><g clip-path="url(#clip0)" transform="translate(-461 -461)"><rect x="461" y="461" width="2598" height="2598" fill="#7F7F7F" fill-opacity="0"/><path d="M2467.67 914.366C2505.72 876.313 2567.42 876.313 2605.47 914.366L2605.47 914.366C2643.52 952.419 2643.52 1014.12 2605.47 1052.17L1052.33 2605.31C1014.28 2643.36 952.582 2643.36 914.529 2605.31L914.529 2605.31C876.476 2567.26 876.475 2505.56 914.528 2467.51Z" fill-rule="evenodd"/><path d="M2596.04 2476.94C2634.09 2514.99 2634.09 2576.69 2596.04 2614.74L2596.04 2614.74C2557.99 2652.79 2496.29 2652.79 2458.24 2614.74L905.095 1061.6C867.042 1023.55 867.042 961.852 905.096 923.799L905.096 923.799C943.149 885.746 1004.84 885.746 1042.9 923.799Z" fill-rule="evenodd"/></g></svg>