<svg xmlns="http://www.w3.org/2000/svg" xmlns:xlink="http://www.w3.org/1999/xlink" width="22" height="22" viewBox="0 0 22 22" fill="none"><defs><rect id="path_0" x="0" y="0" width="22" height="22" /></defs><g opacity="1" transform="translate(-0.000015097624782356434 -0.000022045731157049886)  rotate(0 11 11)"><mask id="bg-mask-0" fill="white"><use xlink:href="#path_0"></use></mask><g mask="url(#bg-mask-0)" ><path id="并集" fill-rule="evenodd" style="fill:#3D7DFC" transform="translate(1.0633333333333326 1.0633333333333894)  rotate(0 9.935 9.935)" opacity="1" d="M9.94 19.87Q11.965 19.87 13.81 19.09Q15.595 18.34 16.96 16.96Q18.34 15.595 19.09 13.81Q19.87 11.965 19.87 9.94Q19.87 7.915 19.09 6.07C18.59 4.88 17.88 3.82 16.96 2.91C16.05 1.99 14.99 1.28 13.81 0.78C12.57 0.26 11.29 0 9.94 0Q7.915 0 6.07 0.78C4.88 1.28 3.83 1.99 2.91 2.9C1.99 3.82 1.28 4.88 0.78 6.07Q0 7.915 0 9.94C0 11.29 0.26 12.57 0.78 13.81C1.28 14.99 1.99 16.04 2.9 16.96C3.82 17.88 4.88 18.59 6.07 19.09Q7.915 19.87 9.94 19.87ZM18.33 9.94Q18.33 8.23 17.67 6.67C17.25 5.66 16.65 4.77 15.88 3.99C15.1 3.22 14.21 2.62 13.21 2.2Q11.65 1.54 9.94 1.54Q8.23 1.54 6.67 2.2C5.66 2.63 4.77 3.22 3.99 4C3.22 4.77 2.63 5.66 2.2 6.67Q1.54 8.23 1.54 9.94Q1.54 11.65 2.2 13.21Q2.83 14.71 4 15.88C4.77 16.65 5.66 17.25 6.67 17.67Q8.23 18.33 9.94 18.33Q11.65 18.33 13.21 17.67C14.21 17.25 15.1 16.65 15.88 15.88C16.65 15.1 17.25 14.21 17.67 13.21Q18.33 11.65 18.33 9.94ZM11.77 7.47637C11.77 7.72637 11.72 7.95637 11.63 8.18637C11.53 8.40637 11.4 8.59637 11.23 8.76637C11.06 8.93637 10.87 9.06637 10.65 9.16637C10.42 9.25637 10.19 9.30637 9.94 9.30637C9.88 9.30637 9.82 9.31637 9.76 9.32637C9.7 9.33637 9.64 9.35637 9.59 9.37637C9.53 9.39637 9.48 9.42637 9.43 9.45637C9.38 9.49637 9.33 9.53637 9.29 9.57637C9.25 9.61637 9.21 9.66637 9.17 9.71637C9.14 9.76637 9.11 9.81637 9.09 9.87637C9.07 9.92637 9.05 9.98637 9.04 10.0464C9.03 10.1064 9.02 10.1664 9.02 10.2264L9.02 12.0564C9.02 12.1164 9.03 12.1764 9.04 12.2364C9.05 12.2864 9.07 12.3464 9.09 12.4064C9.11 12.4564 9.14 12.5164 9.17 12.5664C9.21 12.6164 9.25 12.6564 9.29 12.6964C9.33 12.7464 9.38 12.7864 9.43 12.8164C9.48 12.8464 9.53 12.8764 9.59 12.8964C9.64 12.9264 9.7 12.9364 9.76 12.9564C9.82 12.9664 9.88 12.9664 9.94 12.9664C10 12.9664 10.06 12.9664 10.12 12.9564C10.17 12.9364 10.23 12.9264 10.29 12.8964C10.34 12.8764 10.4 12.8464 10.45 12.8164C10.5 12.7864 10.54 12.7464 10.58 12.6964C10.63 12.6564 10.67 12.6164 10.7 12.5664C10.73 12.5164 10.76 12.4564 10.78 12.4064C10.81 12.3464 10.82 12.2864 10.84 12.2364C10.85 12.1764 10.85 12.1164 10.85 12.0564L10.85 11.0264C11.03 10.9764 11.2 10.9264 11.36 10.8564C11.8 10.6664 12.19 10.4064 12.53 10.0664C12.87 9.72637 13.13 9.33637 13.32 8.89637C13.51 8.44637 13.6 7.96637 13.6 7.47637C13.6 6.97637 13.51 6.49637 13.32 6.04637C13.13 5.60637 12.87 5.21637 12.53 4.87637C12.19 4.54637 11.8 4.27637 11.36 4.09637C10.91 3.90637 10.43 3.80637 9.94 3.80637C9.44 3.80637 8.96 3.90637 8.51 4.09637C8.07 4.27637 7.68 4.54637 7.34 4.87637C7.01 5.21637 6.74 5.60637 6.56 6.04637C6.37 6.49637 6.27 6.97637 6.27 7.47637C6.27 7.53637 6.28 7.59637 6.29 7.65637C6.3 7.70637 6.32 7.76637 6.34 7.82637C6.36 7.87637 6.39 7.93637 6.42 7.98637C6.46 8.03637 6.5 8.07637 6.54 8.11637C6.58 8.16637 6.63 8.20637 6.68 8.23637C6.73 8.26637 6.78 8.29637 6.84 8.31637C6.89 8.34637 6.95 8.35637 7.01 8.37637C7.07 8.38637 7.13 8.38637 7.19 8.38637C7.25 8.38637 7.31 8.38637 7.37 8.37637C7.42 8.35637 7.48 8.34637 7.54 8.31637C7.59 8.29637 7.65 8.26637 7.7 8.23637C7.75 8.20637 7.79 8.16637 7.83 8.11637C7.88 8.07637 7.92 8.03637 7.95 7.98637C7.98 7.93637 8.01 7.87637 8.03 7.82637C8.06 7.76637 8.07 7.70637 8.09 7.65637C8.1 7.59637 8.1 7.53637 8.1 7.47637C8.1 7.22637 8.15 6.98637 8.25 6.75637C8.34 6.53637 8.47 6.34637 8.64 6.17637C8.81 6.00637 9 5.87637 9.22 5.78637C9.45 5.68637 9.69 5.63637 9.94 5.63637C10.19 5.63637 10.42 5.68637 10.65 5.78637C10.87 5.87637 11.06 6.00637 11.23 6.17637C11.4 6.34637 11.53 6.53637 11.63 6.75637C11.72 6.98637 11.77 7.22637 11.77 7.47637ZM9.94083 13.8897C10.5708 13.8897 11.0808 14.3997 11.0808 15.0397C11.0808 15.6697 10.5708 16.1797 9.94083 16.1797C9.30083 16.1797 8.79083 15.6697 8.79083 15.0397C8.79083 14.3997 9.30083 13.8897 9.94083 13.8897Z " /></g></g></svg>