<svg xmlns="http://www.w3.org/2000/svg" xmlns:xlink="http://www.w3.org/1999/xlink" width="22" height="22" viewBox="0 0 22 22" fill="none"><defs><rect id="path_0" x="0" y="0" width="22" height="22" /></defs><g opacity="1" transform="translate(0 0)  rotate(0 11 11)"><mask id="bg-mask-0" fill="white"><use xlink:href="#path_0"></use></mask><g mask="url(#bg-mask-0)" ><path id="并集" fill-rule="evenodd" style="fill:#FFFFFF" transform="translate(1.375 1.375)  rotate(0 9.625 9.625)" opacity="1" d="M16.43 16.43C17.32 15.54 18.01 14.52 18.49 13.37C19 12.18 19.25 10.93 19.25 9.63C19.25 8.32 19 7.07 18.49 5.88C18.01 4.73 17.32 3.71 16.43 2.82C15.54 1.93 14.52 1.24 13.37 0.76C12.18 0.25 10.93 0 9.63 0C8.32 0 7.07 0.25 5.88 0.76C4.73 1.24 3.71 1.93 2.82 2.82C1.93 3.71 1.24 4.73 0.76 5.88C0.25 7.07 0 8.32 0 9.63C0 10.93 0.25 12.18 0.76 13.37C1.24 14.52 1.93 15.54 2.82 16.43C3.71 17.32 4.73 18.01 5.88 18.49C7.07 19 8.32 19.25 9.63 19.25C10.93 19.25 12.18 19 13.37 18.49C14.52 18.01 15.54 17.32 16.43 16.43ZM9.63 17.42C8.57 17.42 7.56 17.21 6.6 16.8C5.66 16.41 4.84 15.85 4.12 15.13C3.4 14.41 2.84 13.59 2.45 12.65C2.04 11.69 1.83 10.68 1.83 9.63C1.83 8.57 2.04 7.56 2.45 6.6C2.84 5.66 3.4 4.84 4.12 4.12C4.84 3.4 5.66 2.84 6.6 2.45C7.56 2.04 8.57 1.83 9.63 1.83C10.68 1.83 11.69 2.04 12.65 2.45C13.59 2.84 14.41 3.4 15.13 4.12C15.85 4.84 16.41 5.66 16.8 6.6C17.21 7.56 17.42 8.57 17.42 9.63C17.42 10.68 17.21 11.69 16.8 12.65C16.41 13.59 15.85 14.41 15.13 15.13C14.41 15.85 13.59 16.41 12.65 16.8C11.69 17.21 10.68 17.42 9.63 17.42ZM8.48 4.35C8.48 3.72 8.99 3.21 9.63 3.21C10.26 3.21 10.77 3.72 10.77 4.35C10.77 4.99 10.26 5.5 9.63 5.5C8.99 5.5 8.48 4.99 8.48 4.35ZM9.53 16.5L9.72 16.5C9.74 16.49 9.78 16.49 9.8 16.48C9.83 16.48 9.86 16.47 9.89 16.46L9.98 16.43C10.01 16.42 10.03 16.4 10.06 16.39C10.08 16.38 10.11 16.36 10.13 16.34C10.16 16.33 10.18 16.31 10.21 16.29L10.27 16.23C10.29 16.21 10.31 16.19 10.34 16.17C10.35 16.14 10.37 16.12 10.39 16.09C10.4 16.07 10.42 16.04 10.43 16.01C10.45 15.99 10.46 15.96 10.47 15.94C10.48 15.9 10.49 15.88 10.5 15.85C10.51 15.82 10.52 15.79 10.52 15.76C10.53 15.73 10.53 15.7 10.54 15.68L10.54 7.24C10.53 7.21 10.53 7.18 10.52 7.15C10.52 7.13 10.51 7.1 10.5 7.07L10.47 6.98C10.46 6.95 10.45 6.93 10.43 6.9C10.42 6.88 10.4 6.85 10.39 6.82C10.37 6.8 10.35 6.77 10.34 6.75C10.31 6.73 10.29 6.71 10.27 6.69C10.25 6.66 10.23 6.65 10.21 6.62C10.18 6.6 10.16 6.59 10.13 6.57C10.11 6.55 10.08 6.54 10.06 6.53C10.03 6.51 10.01 6.5 9.98 6.49L9.89 6.46L9.8 6.43C9.78 6.43 9.74 6.43 9.72 6.42L9.53 6.42C9.51 6.43 9.47 6.43 9.45 6.43L9.36 6.46L9.27 6.49C9.25 6.5 9.22 6.51 9.19 6.53C9.17 6.54 9.14 6.55 9.12 6.57C9.09 6.59 9.07 6.6 9.04 6.62C9.02 6.65 9 6.66 8.98 6.69L8.92 6.75C8.9 6.77 8.88 6.8 8.86 6.82C8.85 6.85 8.83 6.88 8.82 6.9C8.81 6.93 8.79 6.95 8.78 6.98L8.75 7.07C8.74 7.1 8.73 7.13 8.73 7.15C8.72 7.18 8.72 7.21 8.71 7.24L8.71 15.68C8.72 15.7 8.72 15.73 8.73 15.76C8.73 15.79 8.74 15.82 8.75 15.85C8.76 15.88 8.77 15.9 8.78 15.94C8.79 15.96 8.81 15.99 8.82 16.01C8.83 16.04 8.85 16.07 8.86 16.09C8.88 16.12 8.9 16.14 8.92 16.17L8.98 16.23L9.04 16.29C9.07 16.31 9.09 16.33 9.12 16.34C9.14 16.36 9.17 16.38 9.19 16.39C9.22 16.4 9.25 16.42 9.27 16.43L9.36 16.46C9.39 16.47 9.42 16.48 9.45 16.48C9.47 16.49 9.51 16.49 9.53 16.5Z" /></g></g></svg>