<svg xmlns="http://www.w3.org/2000/svg" xmlns:xlink="http://www.w3.org/1999/xlink" width="22" height="22"
    viewBox="0 0 22 22" fill="none">
    <defs>
        <rect id="path_0" x="0" y="0" width="22" height="22" />
    </defs>
    <g opacity="1" transform="translate(-0.000015097624782356434 -0.000022045731157049886)  rotate(0 11 11)">
        <mask id="bg-mask-0" fill="white">
            <use xlink:href="#path_0"></use>
        </mask>
        <g mask="url(#bg-mask-0)">
            <path id="并集" fill-rule="evenodd" style="fill:#3D7DFC"
                transform="translate(1.6041663333332963 1.8333330000000387)  rotate(0 9.623350166666658 9.168335166666687)"
                opacity="1"
                d="M11.5133 0.15C11.4633 0.12 11.4033 0.09 11.3533 0.07C11.2933 0.05 11.2333 0.03 11.1833 0.02C11.1233 0.01 11.0633 0 11.0033 0C10.9433 0 10.8833 0.01 10.8233 0.02C10.7633 0.03 10.7033 0.05 10.6533 0.07C10.5933 0.09 10.5433 0.12 10.4933 0.15C10.4433 0.19 10.3933 0.23 10.3533 0.27C10.3133 0.31 10.2733 0.36 10.2333 0.41C10.2033 0.46 10.1733 0.51 10.1533 0.57C10.1333 0.62 10.1133 0.68 10.1033 0.74C10.0933 0.8 10.0833 0.86 10.0833 0.92L10.0833 1.83333L0.92 1.83333C0.86 1.83333 0.8 1.84333 0.74 1.85333C0.68 1.86333 0.62 1.88333 0.57 1.90333C0.51 1.92333 0.46 1.95333 0.41 1.98333C0.36 2.02333 0.31 2.06333 0.27 2.10333C0.23 2.14333 0.19 2.19333 0.15 2.24333C0.12 2.29333 0.09 2.34333 0.07 2.40333C0.05 2.45333 0.03 2.51333 0.02 2.57333C0.01 2.63333 0 2.69333 0 2.75333C0 2.81333 0.01 2.87333 0.02 2.93333C0.03 2.98333 0.05 3.04333 0.07 3.10333C0.09 3.15333 0.12 3.21333 0.15 3.26333C0.19 3.31333 0.23 3.35333 0.27 3.39333C0.31 3.44333 0.36 3.48333 0.41 3.51333C0.46 3.54333 0.51 3.57333 0.57 3.59333C0.62 3.62333 0.68 3.63333 0.74 3.65333C0.8 3.66333 0.86 3.66333 0.92 3.66333L10.0833 3.66333L10.0833 4.59C10.0833 4.65 10.0933 4.71 10.1033 4.77C10.1133 4.82 10.1333 4.88 10.1533 4.94C10.1733 4.99 10.2033 5.05 10.2333 5.1C10.2733 5.15 10.3133 5.19 10.3533 5.23C10.3933 5.28 10.4433 5.32 10.4933 5.35C10.5433 5.38 10.5933 5.41 10.6533 5.43C10.7033 5.46 10.7633 5.47 10.8233 5.49C10.8833 5.5 10.9433 5.5 11.0033 5.5C11.0633 5.5 11.1233 5.5 11.1833 5.49C11.2333 5.47 11.2933 5.46 11.3533 5.43C11.4033 5.41 11.4633 5.38 11.5133 5.35C11.5633 5.32 11.6033 5.28 11.6433 5.23C11.6933 5.19 11.7333 5.15 11.7633 5.1C11.7933 5.05 11.8233 4.99 11.8433 4.94C11.8733 4.88 11.8833 4.82 11.9033 4.77C11.9133 4.71 11.9133 4.65 11.9133 4.59L11.9133 0.92C11.9133 0.86 11.9133 0.8 11.9033 0.74C11.8833 0.68 11.8733 0.62 11.8433 0.57C11.8233 0.51 11.7933 0.46 11.7633 0.41C11.7333 0.36 11.6933 0.31 11.6433 0.27C11.6033 0.23 11.5633 0.19 11.5133 0.15ZM14.1267 2.21C14.0867 2.24 14.0567 2.28 14.0267 2.32C13.9967 2.36 13.9767 2.41 13.9567 2.46C13.9367 2.5 13.9167 2.55 13.9067 2.6C13.8967 2.65 13.8967 2.7 13.8967 2.75C13.8967 2.8 13.8967 2.85 13.9067 2.9C13.9167 2.95 13.9367 3 13.9567 3.04C13.9767 3.09 13.9967 3.14 14.0267 3.18C14.0567 3.22 14.0867 3.26 14.1267 3.29C14.1567 3.33 14.1967 3.36 14.2367 3.39C14.2767 3.42 14.3267 3.44 14.3767 3.46C14.4167 3.48 14.4667 3.5 14.5167 3.51C14.5667 3.52 14.6167 3.52 14.6667 3.52L17.4167 3.52C17.4667 3.52 17.5167 3.52 17.5667 3.51C17.6167 3.5 17.6667 3.48 17.7067 3.46C17.7567 3.44 17.8067 3.42 17.8467 3.39C17.8867 3.36 17.9267 3.33 17.9567 3.29C17.9967 3.26 18.0267 3.22 18.0567 3.18C18.0867 3.14 18.1067 3.09 18.1267 3.04C18.1467 3 18.1667 2.95 18.1767 2.9C18.1867 2.85 18.1867 2.8 18.1867 2.75C18.1867 2.7 18.1867 2.65 18.1767 2.6C18.1667 2.55 18.1467 2.5 18.1267 2.46C18.1067 2.41 18.0867 2.36 18.0567 2.32C18.0267 2.28 17.9967 2.24 17.9567 2.21C17.9267 2.17 17.8867 2.14 17.8467 2.11C17.8067 2.08 17.7567 2.06 17.7067 2.04C17.6667 2.02 17.6167 2 17.5667 1.99C17.5167 1.98 17.4667 1.98 17.4167 1.98L14.6667 1.98C14.6167 1.98 14.5667 1.98 14.5167 1.99C14.4667 2 14.4167 2.02 14.3767 2.04C14.3267 2.06 14.2767 2.08 14.2367 2.11C14.1967 2.14 14.1567 2.17 14.1267 2.21ZM7.33333 11.0067C7.33333 11.0667 7.34333 11.1267 7.35333 11.1867C7.36333 11.2367 7.38333 11.2967 7.40333 11.3567C7.42333 11.4067 7.45333 11.4667 7.48333 11.5167C7.52333 11.5667 7.56333 11.6067 7.60333 11.6467C7.64333 11.6967 7.69333 11.7367 7.74333 11.7667C7.79333 11.7967 7.84333 11.8267 7.90333 11.8467C7.95333 11.8767 8.01333 11.8867 8.07333 11.9067C8.13333 11.9167 8.19333 11.9167 8.25333 11.9167C8.31333 11.9167 8.37333 11.9167 8.43333 11.9067C8.48333 11.8867 8.54333 11.8767 8.60333 11.8467C8.65333 11.8267 8.71333 11.7967 8.76333 11.7667C8.81333 11.7367 8.85333 11.6967 8.89333 11.6467C8.94333 11.6067 8.98333 11.5667 9.01333 11.5167C9.04333 11.4667 9.07333 11.4067 9.09333 11.3567C9.12333 11.2967 9.13333 11.2367 9.15333 11.1867C9.16333 11.1267 9.16333 11.0667 9.16333 11.0067L9.16333 10.08L18.3333 10.08C18.3933 10.08 18.4533 10.08 18.5133 10.07C18.5633 10.05 18.6233 10.04 18.6833 10.01C18.7333 9.99 18.7933 9.96 18.8433 9.93C18.8933 9.9 18.9333 9.86 18.9733 9.81C19.0233 9.77 19.0633 9.73 19.0933 9.68C19.1233 9.63 19.1533 9.57 19.1733 9.52C19.2033 9.46 19.2133 9.4 19.2333 9.35C19.2433 9.29 19.2433 9.23 19.2433 9.17C19.2433 9.11 19.2433 9.05 19.2333 8.99C19.2133 8.93 19.2033 8.87 19.1733 8.82C19.1533 8.76 19.1233 8.71 19.0933 8.66C19.0633 8.61 19.0233 8.56 18.9733 8.52C18.9333 8.48 18.8933 8.44 18.8433 8.4C18.7933 8.37 18.7333 8.34 18.6833 8.32C18.6233 8.3 18.5633 8.28 18.5133 8.27C18.4533 8.26 18.3933 8.25 18.3333 8.25L9.16333 8.25L9.16333 7.33667C9.16333 7.27667 9.16333 7.21667 9.15333 7.15667C9.13333 7.09667 9.12333 7.03667 9.09333 6.98667C9.07333 6.92667 9.04333 6.87667 9.01333 6.82667C8.98333 6.77667 8.94333 6.72667 8.89333 6.68667C8.85333 6.64667 8.81333 6.60667 8.76333 6.56667C8.71333 6.53667 8.65333 6.50667 8.60333 6.48667C8.54333 6.46667 8.48333 6.44667 8.43333 6.43667C8.37333 6.42667 8.31333 6.41667 8.25333 6.41667C8.19333 6.41667 8.13333 6.42667 8.07333 6.43667C8.01333 6.44667 7.95333 6.46667 7.90333 6.48667C7.84333 6.50667 7.79333 6.53667 7.74333 6.56667C7.69333 6.60667 7.64333 6.64667 7.60333 6.68667C7.56333 6.72667 7.52333 6.77667 7.48333 6.82667C7.45333 6.87667 7.42333 6.92667 7.40333 6.98667C7.38333 7.03667 7.36333 7.09667 7.35333 7.15667C7.34333 7.21667 7.33333 7.27667 7.33333 7.33667L7.33333 11.0067ZM4.59 8.25L0.92 8.25C0.86 8.25 0.8 8.26 0.74 8.27C0.68 8.28 0.62 8.3 0.57 8.32C0.51 8.34 0.46 8.37 0.41 8.4C0.36 8.44 0.31 8.48 0.27 8.52C0.23 8.56 0.19 8.61 0.15 8.66C0.12 8.71 0.09 8.76 0.07 8.82C0.05 8.87 0.03 8.93 0.02 8.99C0.01 9.05 0 9.11 0 9.17C0 9.23 0.01 9.29 0.02 9.35C0.03 9.4 0.05 9.46 0.07 9.52C0.09 9.57 0.12 9.63 0.15 9.68C0.19 9.73 0.23 9.77 0.27 9.81C0.31 9.86 0.36 9.9 0.41 9.93C0.46 9.96 0.51 9.99 0.57 10.01C0.62 10.04 0.68 10.05 0.74 10.07C0.8 10.08 0.86 10.08 0.92 10.08L4.59 10.08C4.65 10.08 4.71 10.08 4.77 10.07C4.82 10.05 4.88 10.04 4.94 10.01C4.99 9.99 5.05 9.96 5.1 9.93C5.15 9.9 5.19 9.86 5.23 9.81C5.28 9.77 5.32 9.73 5.35 9.68C5.38 9.63 5.41 9.57 5.43 9.52C5.46 9.46 5.47 9.4 5.49 9.35C5.5 9.29 5.5 9.23 5.5 9.17C5.5 9.11 5.5 9.05 5.49 8.99C5.47 8.93 5.46 8.87 5.43 8.82C5.41 8.76 5.38 8.71 5.35 8.66C5.32 8.61 5.28 8.56 5.23 8.52C5.19 8.48 5.15 8.44 5.1 8.4C5.05 8.37 4.99 8.34 4.94 8.32C4.88 8.3 4.82 8.28 4.77 8.27C4.71 8.26 4.65 8.25 4.59 8.25ZM10.3533 13.1033C10.3133 13.1433 10.2733 13.1933 10.2333 13.2433C10.2033 13.2933 10.1733 13.3433 10.1533 13.4033C10.1333 13.4533 10.1133 13.5133 10.1033 13.5733C10.0933 13.6333 10.0833 13.6933 10.0833 13.7533L10.0833 14.6667L0.92 14.6667C0.86 14.6667 0.8 14.6767 0.74 14.6867C0.68 14.6967 0.62 14.7167 0.57 14.7367C0.51 14.7567 0.46 14.7867 0.41 14.8167C0.36 14.8567 0.31 14.8967 0.27 14.9367C0.23 14.9767 0.19 15.0267 0.15 15.0767C0.12 15.1267 0.09 15.1767 0.07 15.2367C0.05 15.2867 0.03 15.3467 0.02 15.4067C0.01 15.4667 0 15.5267 0 15.5867C0 15.6467 0.01 15.7067 0.02 15.7667C0.03 15.8167 0.05 15.8767 0.07 15.9367C0.09 15.9867 0.12 16.0467 0.15 16.0967C0.19 16.1467 0.23 16.1867 0.27 16.2267C0.31 16.2767 0.36 16.3167 0.41 16.3467C0.46 16.3767 0.51 16.4067 0.57 16.4267C0.62 16.4567 0.68 16.4667 0.74 16.4867C0.8 16.4967 0.86 16.4967 0.92 16.4967L10.0833 16.4967L10.0833 17.4233C10.0833 17.4833 10.0933 17.5433 10.1033 17.6033C10.1133 17.6533 10.1333 17.7133 10.1533 17.7733C10.1733 17.8233 10.2033 17.8833 10.2333 17.9333C10.2733 17.9833 10.3133 18.0233 10.3533 18.0633C10.3933 18.1133 10.4433 18.1533 10.4933 18.1833C10.5433 18.2133 10.5933 18.2433 10.6533 18.2633C10.7033 18.2933 10.7633 18.3033 10.8233 18.3233C10.8833 18.3333 10.9433 18.3333 11.0033 18.3333C11.0633 18.3333 11.1233 18.3333 11.1833 18.3233C11.2333 18.3033 11.2933 18.2933 11.3533 18.2633C11.4033 18.2433 11.4633 18.2133 11.5133 18.1833C11.5633 18.1533 11.6033 18.1133 11.6433 18.0633C11.6933 18.0233 11.7333 17.9833 11.7633 17.9333C11.7933 17.8833 11.8233 17.8233 11.8433 17.7733C11.8733 17.7133 11.8833 17.6533 11.9033 17.6033C11.9133 17.5433 11.9133 17.4833 11.9133 17.4233L11.9133 13.7533C11.9133 13.6933 11.9133 13.6333 11.9033 13.5733C11.8833 13.5133 11.8733 13.4533 11.8433 13.4033C11.8233 13.3433 11.7933 13.2933 11.7633 13.2433C11.7333 13.1933 11.6933 13.1433 11.6433 13.1033C11.6033 13.0633 11.5633 13.0233 11.5133 12.9833C11.4633 12.9533 11.4033 12.9233 11.3533 12.9033C11.2933 12.8833 11.2333 12.8633 11.1833 12.8533C11.1233 12.8433 11.0633 12.8333 11.0033 12.8333C10.9433 12.8333 10.8833 12.8433 10.8233 12.8533C10.7633 12.8633 10.7033 12.8833 10.6533 12.9033C10.5933 12.9233 10.5433 12.9533 10.4933 12.9833C10.4433 13.0233 10.3933 13.0633 10.3533 13.1033ZM13.9 15.0767C13.87 15.1267 13.84 15.1767 13.82 15.2367C13.8 15.2867 13.78 15.3467 13.77 15.4067C13.76 15.4667 13.75 15.5267 13.75 15.5867C13.75 15.6467 13.76 15.7067 13.77 15.7667C13.78 15.8167 13.8 15.8767 13.82 15.9367C13.84 15.9867 13.87 16.0467 13.9 16.0967C13.94 16.1467 13.98 16.1867 14.02 16.2267C14.06 16.2767 14.11 16.3167 14.16 16.3467C14.21 16.3767 14.26 16.4067 14.32 16.4267C14.37 16.4567 14.43 16.4667 14.49 16.4867C14.55 16.4967 14.61 16.4967 14.67 16.4967L17.42 16.4967C17.48 16.4967 17.54 16.4967 17.6 16.4867C17.65 16.4667 17.71 16.4567 17.77 16.4267C17.82 16.4067 17.88 16.3767 17.93 16.3467C17.98 16.3167 18.02 16.2767 18.06 16.2267C18.11 16.1867 18.15 16.1467 18.18 16.0967C18.21 16.0467 18.24 15.9867 18.26 15.9367C18.29 15.8767 18.3 15.8167 18.32 15.7667C18.33 15.7067 18.33 15.6467 18.33 15.5867C18.33 15.5267 18.33 15.4667 18.32 15.4067C18.3 15.3467 18.29 15.2867 18.26 15.2367C18.24 15.1767 18.21 15.1267 18.18 15.0767C18.15 15.0267 18.11 14.9767 18.06 14.9367C18.02 14.8967 17.98 14.8567 17.93 14.8167C17.88 14.7867 17.82 14.7567 17.77 14.7367C17.71 14.7167 17.65 14.6967 17.6 14.6867C17.54 14.6767 17.48 14.6667 17.42 14.6667L14.67 14.6667C14.61 14.6667 14.55 14.6767 14.49 14.6867C14.43 14.6967 14.37 14.7167 14.32 14.7367C14.26 14.7567 14.21 14.7867 14.16 14.8167C14.11 14.8567 14.06 14.8967 14.02 14.9367C13.98 14.9767 13.94 15.0267 13.9 15.0767Z " />
        </g>
    </g>
</svg>